<svg class="logo" clip-rule="evenodd" fill-rule="evenodd" stroke-linejoin="round" stroke-miterlimit="2" viewBox="0 0 140 100" xmlns="http://www.w3.org/2000/svg"><g transform="matrix(.104167 0 0 .104167 -30 -35)"><path d="m1344 720h-48c0-158.952 129.05-288 288-288s288 129.048 288 288c0 158.951-129.05 288-288 288h-144v-48h144c132.46 0 240-107.54 240-240s-107.54-240-240-240-240 107.54-240 240z" class="logo__color logo__color_3" transform="translate(-336 192)"/><path d="m912 912h48v384h-48z" class="logo__color logo__color_2"/><path d="m864 912h48v384h-48z" class="logo__color logo__color_1"/><path d="m912 726.068c65.531-118.078 191.5-198.068 336-198.068 211.93 0 384 172.065 384 384 0 211.93-172.06 384-384 384h-144v-48h144c185.44 0 336-150.56 336-336 0-185.443-150.56-336-336-336s-335.999 150.556-336 336c-.001 132.46-107.541 240-240 240-132.46 0-240-107.54-240-240s107.54-240 240-240h144v48h-144l-.621.001s-.619.003-.619.003l-.213.002-.406.003-.255.003-.364.004-.272.004-.346.005-.282.004-.336.006-.287.006-.33.007-.292.007-.325.008-.294.008-.322.008-.297.009-.319.01-.298.01-.318.01-.299.011-.315.012-.301.012-.314.012-.301.013-.313.013-.302.014-.311.014-.302.015-.311.016-.303.015-.309.017-.303.016-.309.018-.304.017-.307.018-.304.019-.307.019-.304.02-.307.02-.304.021-.305.02-.304.022-.306.022-.304.023-.305.022-.304.024-.304.024-.304.024-.304.025-.303.025-.304.026-.304.026-.302.027-.304.027-.302.027-.304.029-.302.028-.304.03-.301.029-.303.03-.302.03-.303.031-.3.032-.304.032-.3.032-.303.033-.3.033-.302.034-.3.034-.303.035-.299.034-.302.036-.299.036-.302.037-.298.037-.302.037-.298.038-.302.039-.298.038-.301.04-.298.039-.301.041-.297.04-.301.042-.297.041-.301.042-.296.042-.3.044-.296.043-.301.044-.295.044-.3.045-.295.045-.3.046-.295.046-.3.047-.294.046-.3.048-.294.048-.299.049-.294.048-.299.05-.293.049-.299.051-.293.05-.298.052-.293.051-.298.053-.292.051-.298.054-.292.053-.298.054-.292.054-.297.055-.291.055-.297.056-.291.055-.297.058-.29.056-.297.058-.29.057-.296.059-.29.058-.296.06-.29.059-.295.061-.289.06-.295.062-.29.06-.294.063-.289.061-.294.064-.289.062-.294.065-.288.063-.294.065-.288.065-.293.066-.288.065-.293.067-.287.066-.292.068-.287.067-.293.068-.286.068-.292.07-.286.068-.292.071-.286.069-.291.072-.286.07-.291.072-.285.071-.291.074-.284.072-.291.074-.284.073-.29.075-.284.073-.29.076-.284.075-.289.076-.283.076-.289.077-.283.077-.289.078-.283.077-.288.079-.282.078-.288.081-.282.078-.288.081-.281.08-.287.082-.282.08-.286.083-.281.081-.287.084-.28.082-.286.085-.281.083-.285.085-.28.084-.286.086-.279.085-.285.087-.279.085-.285.088-.279.087-.284.088-.278.088-.284.089-.278.088-.284.091-.277.088-.283.092-.278.089-.282.093-.277.09-.283.093-.276.091-.282.094-.276.092-.282.095-.276.093-.281.095-.275.094-.281.097-.275.094-.28.097-.275.096-.28.098-.275.096-.279.099-.274.097-.279.1-.274.097-.279.101-.273.099-.278.101-.273.099-.278.103-.272.1-.278.103-.272.101-.277.104-.272.102-.277.104-.271.103-.276.105-.271.104-.276.106-.271.105-.275.107-.27.105-.275.108-.27.106-.275.108-.269.107-.274.109-.269.108-.274.11-.269.109-.273.111-.268.109-.273.112-.268.11-.273.112-.267.111-.272.114-.267.111-.272.114-.267.113-.271.115-.266.113-.271.116-.266.114-.27.116-.265.115-.27.118-.265.115-.27.118-.264.117-.269.119-.265.117-.268.12-.264.117-.268.121-.264.119-.267.121-.263.12-.268.122-.262.12-.267.123-.262.121-.266.124-.262.121-.266.125-.261.122-.266.126-.261.123-.265.126-.26.124-.265.127-.26.125-.264.127-.26.126-.263.128-.259.127-.264.129-.258.127-.263.13-.259.128-.262.131-.258.128-.262.132-.257.129-.261.132-.257.131-.261.132-.257.132-.26.133-.257.132-.259.134-.256.133-.26.135-.255.133-.259.136-.255.134-.258.137-.255.135-.258.137-.254.136-.257.138-.254.136-.257.139-.253.137-.257.14-.252.138-.257.14-.252.139-.255.141-.252.139-.255.142-.252.14-.254.143-.251.141-.254.143-.251.142-.253.144-.25.142-.254.145-.249.143-.253.145-.249.144-.252.146-.249.145-.251.147-.248.145-.252.148-.247.146-.251.148-.247.147-.25.149-.247.148-.25.15-.246.148-.249.15-.246.149-.249.152-.245.149-.248.152-.245.151-.248.153-.244.151-.248.153-.243.152-.247.154-.243.153-.247.155-.243.153-.245.155-.243.154-.245.157-.242.154-.245.158-.241.155-.244.158-.241.156-.244.158-.24.157-.243.159-.24.158-.243.16-.239.158-.243.16-.239.159-.241.162-.239.159-.241.162-.238.161-.24.162-.238.161-.24.164-.237.161-.239.165-.237.162-.239.165-.236.163-.238.165-.236.164-.238.166-.235.165-.237.167-.235.165-.236.167-.234.166-.237.169-.233.166-.236.169-.233.167-.235.17-.233.168-.234.17-.232.169-.234.171-.232.169-.233.172-.231.17-.233.172-.231.171-.232.173-.23.171-.232.174-.229.172-.232.174-.229.173-.23.175-.229.174-.23.175-.228.174-.23.177-.227.174-.229.177-.227.176-.228.177-.227.177-.228.178-.225.177-.228.179-.225.177-.227.18-.225.178-.226.18-.224.179-.226.181-.223.179-.226.182-.223.18-.224.182-.223.181-.224.183-.222.182-.223.183-.222.182-.223.184-.221.183-.222.185-.22.183-.222.186-.22.184-.221.186-.219.185-.221.187-.219.185-.22.187-.218.186-.22.188-.217.187-.219.189-.217.187-.218.189-.217.189-.218.189-.215.189-.218.191-.215.189-.217.191-.214.19-.216.192-.215.19-.215.193-.214.191-.214.193-.213.192-.215.194-.212.192-.214.195-.212.193-.213.195-.211.193-.213.196-.21.194-.212.196-.211.196-.211.196-.209.196-.211.197-.209.197-.21.198-.209.197-.209.198-.208.198-.209.199-.207.198-.208.2-.207.199-.208.2-.206.2-.207.201-.206.2-.206.201-.205.201-.206.202-.204.202-.205.203-.204.202-.205.203-.203.202-.204.204-.203.204-.203.204-.202.204-.203.205-.201.205-.202.205-.201.205-.201.207-.201.205-.201.207-.199.207-.2.207-.199.207-.2.208-.198.208-.199.208-.198.208-.199.21-.197.208-.198.21-.196.209-.197.211-.196.21-.197.211-.195.21-.196.212-.195.211-.195.212-.194.212-.195.212-.193.213-.194.213-.193.213-.193.214-.192.213-.193.215-.192.214-.192.215-.191.214-.191.216-.191.215-.19.216-.19.216-.19.217-.189.216-.19.217-.188.217-.189.218-.188.218-.188.218-.187.218-.188.219-.186.219-.187.219-.186.22-.186.22-.186.22-.185.22-.185.221-.185.221-.184.221-.184.221-.183.222-.184.222-.183.222-.183.223-.182.223-.182.223-.181.223-.182.224-.181.224-.181.225-.18.224-.18.225-.18.225-.179.225-.179.226-.179.226-.178.226-.178.227-.178.226-.177.227-.177.228-.177.227-.176.228-.177.228-.175.228-.176.229-.175.229-.175.229-.174.23-.174.229-.174.23-.173.231-.173.23-.173.231-.172.231-.172.231-.172.232-.171.232-.171.232-.171.232-.17.233-.17.233-.17.233-.169.233-.169.234-.169.234-.168.234-.168.235-.167.235-.168.235-.166.235-.167.235-.166.236-.166.236-.166.237-.165.236-.165.237-.164.237-.164.238-.164.237-.163.238-.163.238-.163.239-.163.238-.162.239-.161.239-.162.24-.161.239-.16.24-.161.24-.16.241-.159.24-.159.241-.159.242-.159.241-.158.242-.158.242-.157.242-.157.242-.157.243-.157.243-.156.243-.155.244-.156.243-.155.244-.154.244-.154.245-.154.244-.154.246-.153.245-.153.245-.152.246-.153.246-.151.246-.152.246-.151.247-.15.247-.151.247-.15.247-.149.248-.149.248-.149.248-.149.248-.148.249-.148.249-.147.249-.147.249-.147.249-.146.251-.146.249-.146.251-.145.25-.145.251-.144.251-.144.251-.144.251-.143.253-.143.251-.143.253-.142.252-.142.253-.142.252-.141.254-.141.253-.14.254-.14.253-.14.255-.139.253-.139.255-.139.255-.138.255-.138.255-.137.256-.137.255-.137.256-.136.256-.136.257-.136.256-.135.257-.134.257-.135.258-.134.257-.134.258-.133.257-.133.259-.132.258-.133.259-.131.258-.132.26-.131.259-.131.26-.13.259-.13.261-.129.259-.129.261-.129.26-.128.262-.128.26-.128.262-.127.261-.127.262-.126.262-.126.263-.126.261-.125.264-.125.262-.125.264-.123.262-.124.264-.124.264-.123.264-.122.264-.122.265-.122.264-.122.265-.12.264-.121.266-.12.265-.12.267-.119.265-.12.267-.118.265-.119.267-.117.266-.118.268-.117.266-.117.269-.116.266-.116.269-.115.267-.115.269-.115.268-.114.269-.114.268-.114.27-.113.268-.113.271-.112.269-.112.27-.111.27-.112.271-.11.269-.111.272-.109.27-.11.272-.109.27-.109.273-.108.271-.108.272-.107.272-.108.273-.106.271-.107.274-.105.272-.106.274-.105.272-.105.275-.104.273-.104.275-.103.273-.104.275-.102.274-.102.275-.102.274-.102.276-.101.275-.1.276-.1.275-.1.277-.1.275-.099.277-.098.276-.098.277-.098.276-.098.278-.096.277-.097.278-.096.277-.096.279-.095.276-.095.28-.094.277-.094.28-.094.277-.093.281-.093.278-.092.28-.092.279-.092.281-.091.278-.091.282-.089.279-.091.281-.089.28-.089.282-.088.28-.089.282-.087.28-.088.283-.087.281-.086.283-.086.281-.086.283-.085.282-.085.284-.084.281-.084.285-.084.281-.083.285-.082.282-.083.286-.082.282-.081.286-.081.283-.081.286-.08.283-.08.286-.079.284-.079.287-.078.283-.078.287-.077.285-.078.287-.076.285-.077.288-.075.284-.076.289-.075.285-.075.288-.073.286-.074.289-.073.286-.073.289-.073.286-.072.29-.071.286-.071.29-.071.287-.07.291-.07.287-.069.29-.069.288-.069.291-.067.288-.068.291-.067.288-.067.292-.066.288-.066.293-.065.288-.066.293-.064.289-.064.293-.064.289-.063.293-.063.29-.062.294-.062.289-.061.295-.061.289-.061.295-.06.29-.06.295-.059.291-.059.295-.058.291-.058.295-.057.292-.057.296-.056.291-.057.296-.055.292-.056.297-.054.291-.055.298-.053.292-.054.297-.053.293-.052.297-.052.293-.052.298-.051.293-.051.299-.05.293-.05.299-.049.293-.049.299-.048.294-.048.3-.048.294-.047.3-.046.294-.047.3-.045.295-.046.3-.044.295-.045.301-.043.295-.044.301-.043.295-.043.302-.041.296-.042.302-.041.295-.041.303-.04.295-.04.303-.039.296-.039.304-.038.296-.038.304-.037.296-.038.304-.036.296-.036.305-.036.297-.035.304-.034.297-.035.306-.033.297-.034.305-.032.297-.033.306-.032.298-.031.306-.031.298-.031.307-.029.297-.03.308-.029.297-.029.308-.028.298-.027.308-.027.298-.027.309-.026.298-.026.309-.025.298-.025.31-.024.298-.025.31-.023.298-.023.311-.022.298-.022.311-.022.298-.021.312-.02.298-.021.312-.019.298-.019.313-.019.298-.018.314-.017.297-.018.315-.016.297-.017.316-.015.297-.016.316-.015.296-.014.318-.014.296-.013.318-.013.296-.013.319-.011.295-.012.321-.011.294-.01.322-.01.293-.01.324-.009.292-.009.326-.007.29-.008.329-.007.288-.007.333-.006.285-.006.336-.004.281-.005.344-.004.274-.004.354-.003.265-.003.372-.002.247-.002.413-.001.207-.001.62c0 4.104.129 8.178.383 12.219.04.635.084 1.27.13 1.904.471 6.468 1.263 12.849 2.361 19.124.097.558.197 1.115.299 1.671.491 2.667 1.038 5.316 1.638 7.944.108.475.219.95.331 1.424.245 1.036.498 2.069.76 3.099l.147.575c.079.307.159.613.239.919.097.368.195.735.294 1.103.116.432.234.865.354 1.296.204.736.412 1.471.624 2.203.128.441.257.881.388 1.321.081.272.163.545.245.817.137.452.275.903.415 1.354.069.22.137.439.206.659l.178.562c.121.38.243.76.367 1.14.744 2.289 1.53 4.56 2.357 6.811.255.693.513 1.383.775 2.072.718 1.885 1.464 3.756 2.239 5.612l.141.337.178.422c.612 1.449 1.241 2.889 1.888 4.319 1.231 2.725 2.524 5.416 3.878 8.072.306.6.615 1.201.927 1.791l.078.16.176.33c3.89 7.39 8.246 14.49 13.031 21.27l.082.11.273.39c.436.61.876 1.23 1.319 1.83l.092.13.014.02c.664.91 1.336 1.81 2.016 2.71.128.17.256.34.385.51.89 1.17 1.795 2.33 2.712 3.47.882 1.11 1.777 2.2 2.683 3.29l.37.44c.27.32.541.64.813.96l.306.36.375.43.377.44.378.44.379.43.064.07c1.021 1.17 2.056 2.32 3.104 3.46l.302.32.392.42c1 1.08 2.012 2.14 3.036 3.19l.144.15.303.31c.646.66 1.298 1.31 1.954 1.96l.179.18.14.14c1.039 1.02 2.089 2.03 3.151 3.04.204.19.409.38.615.57 2.416 2.26 4.89 4.46 7.42 6.59.21.17.421.35.632.53.928.77 1.863 1.54 2.805 2.3l.294.23.409.33c.315.25.63.5.947.75l.454.35c.433.34.868.68 1.304 1.01.58.45 1.162.89 1.746 1.33.523.39 1.048.78 1.574 1.16 5.105 3.75 10.401 7.25 15.872 10.49.233.14.467.27.701.41.772.45 1.547.9 2.326 1.34.505.29 1.01.57 1.518.85.422.24.844.47 1.268.7 2.483 1.36 4.999 2.66 7.547 3.9l.465.23c1.031.5 2.067.99 3.107 1.48l.051.02.529.24.53.25c.321.14.643.29.964.43 1.098.5 2.201.98 3.309 1.45.648.28 1.298.55 1.951.82l.206.09.294.12c1.364.56 2.735 1.1 4.114 1.63.461.18.923.35 1.385.53.434.16.87.32 1.305.48l.552.2c.65.24 1.301.47 1.954.7l.261.09.263.09c.393.14.786.27 1.18.41.497.17.994.33 1.492.5l.409.13.524.17c.357.12.715.24 1.073.35l.086.03.506.16c.531.17 1.062.33 1.595.49.247.08.495.15.743.23 2.437.73 4.894 1.42 7.371 2.06.704.18 1.41.36 2.117.53 1.478.36 2.962.71 4.452 1.04l.398.08.32.07c1.644.36 3.295.69 4.954 1l.589.11.59.11.259.05c.556.1 1.114.2 1.672.29 3.721.64 7.479 1.17 11.27 1.59l.53.06h.031c2.308.25 4.628.46 6.959.63.504.03 1.01.07 1.515.1l.612.04.612.03.612.04.4.02c.275.01.551.03.826.04l.614.03c.467.02.934.04 1.402.06.473.01.946.03 1.42.04l.256.01.617.02c.292 0 .584.01.876.02.943.02 1.888.03 2.835.04h.62.621.603.201.403l.239-.01h.363.256.347l.264-.01h.338l.269-.01h.333l.272-.01.329-.01h.274l.328-.01.274-.01.327-.01h.274l.328-.01.272-.01.33-.01.27-.01.333-.01.266-.01.339-.02.259-.01.351-.01.246-.01.376-.02.221-.01.455-.02.142-.01.596-.03.154-.01.441-.03.224-.01.371-.02.247-.02.348-.02.258-.01.337-.02.264-.02.33-.02.267-.02.326-.03.27-.02.324-.02.27-.02.323-.03.271-.02.323-.02.269-.03.324-.02.268-.03.326-.02.265-.03.331-.03.259-.02.34-.03.249-.03.357-.03.232-.02.399-.04.19-.02.587-.06.043-.01.544-.06.201-.02.386-.04.236-.03.351-.04.25-.03.335-.04.258-.03.328-.03.262-.04.323-.04.265-.03.32-.04.266-.03.318-.04.267-.04.318-.04.266-.04.318-.04.265-.04.32-.04.262-.04.324-.04.258-.04.33-.05.251-.03.341-.05.239-.04.367-.05.212-.04.453-.07.126-.02.578-.09.162-.02.416-.07.22-.04.357-.06.241-.04.335-.05.252-.04.325-.06.257-.05.318-.05.261-.05.315-.05.262-.05.313-.06.263-.04.312-.06.262-.05.312-.06.262-.05.313-.06.26-.05.316-.06.256-.05.32-.06.251-.05.329-.06.242-.05.345-.07.224-.05.389-.08.18-.04.568-.12.078-.01.49-.11.201-.04.366-.08.231-.05.336-.07.244-.06.322-.07.251-.06.315-.07.255-.06.31-.07.258-.06.307-.07.259-.06.306-.07.258-.06.306-.08.258-.06.306-.07.257-.06.307-.08.254-.06.311-.08.25-.06.317-.08.244-.06.328-.09.231-.06.353-.09.206-.05.443-.12.115-.03.556-.15.171-.04.386-.11.219-.06.337-.09.236-.06.319-.09.245-.07.31-.09.25-.07.304-.08.253-.08.301-.08.255-.07.299-.09.254-.07.299-.09.254-.08.298-.09.254-.07.299-.09.252-.08.301-.09.249-.07.305-.1.244-.07.313-.1.235-.07.329-.1.219-.07.37-.12.177-.06.544-.17.112-.04.433-.14.204-.06.341-.11.228-.08.316-.1.239-.08.304-.1.245-.09.298-.1.248-.08.294-.1.25-.09.291-.1.252-.08.29-.1.251-.09.289-.1.251-.09.29-.1.249-.09.291-.11.247-.09.294-.1.244-.09.299-.11.237-.09.309-.11.227-.08.331-.13.204-.07.419-.16.115-.04.53-.2.183-.08.349-.13.22-.08.312-.12.233-.09.298-.12.24-.09.29-.12.244-.09.286-.12.246-.1.283-.11.247-.1.282-.11.247-.1.281-.12.247-.1.28-.11.247-.1.28-.12.245-.1.283-.12.242-.1.286-.12.238-.1.291-.13.232-.1.304-.12.218-.1.34-.15.181-.07.516-.23.15-.07.37-.16.211-.09.308-.14.228-.1.29-.13.236-.11.281-.12.24-.11.277-.13.242-.11.273-.12.244-.11.271-.13.245-.11.27-.13.245-.11.269-.13.244-.11.269-.13.243-.12.27-.13.242-.11.272-.13.238-.12.276-.13.234-.11.282-.14.226-.11.299-.15.209-.1.372-.18.134-.07.048-.02.453-.23.201-.1.304-.15.224-.12.28-.14.233-.12.271-.14.237-.12.265-.14.24-.12.262-.14.241-.12.26-.14.242-.12.258-.14.242-.13.258-.13.242-.13.257-.14.241-.13.257-.14.24-.13.258-.14.239-.13.259-.14.236-.13.263-.14.231-.13.271-.15.223-.12.293-.16.199-.12.484-.27.191-.1.299-.17.222-.13.268-.15.231-.14.258-.14.235-.14.253-.14.237-.14.25-.15.239-.14.247-.14.239-.14.247-.15.239-.14.245-.15.24-.14.244-.14.239-.15.244-.14.238-.15.244-.14.238-.15.244-.15.236-.14.245-.15.235-.15.247-.15.231-.14.255-.16.223-.14.288-.18.184-.12.173-.1.296-.19.224-.14.251-.16.231-.15.242-.16.235-.15.238-.15.236-.15.235-.16.237-.15.234-.15.237-.16.233-.15.237-.16.232-.15.237-.16.231-.15.237-.16.23-.15.236-.16.23-.15.236-.16.229-.16.236-.16.228-.16.235-.16.228-.15.235-.16.227-.16.235-.16.228-.16.233-.16.446-.32.235-.16.223-.16.237-.17.221-.15.236-.17.22-.16.237-.17.219-.16.236-.17.218-.15.236-.18.218-.15.235-.18.217-.16.236-.17.216-.16.235-.17.215-.16.235-.17.214-.16.235-.18.213-.16.235-.18.211-.16.236-.17.209-.16.238-.18.205-.16.24-.18.197-.16.247-.19.156-.12.278-.21.275-.22.159-.12.249-.2.192-.14.241-.19.199-.16.238-.19.201-.16.236-.19.201-.16.235-.19.201-.16.234-.19.202-.16.233-.19.201-.16.233-.19.2-.17.233-.19.198-.16.234-.19.197-.17.234-.19.194-.16.236-.2.191-.16.237-.2.186-.15.242-.21.175-.15.252-.21.141-.12c.324-.28.646-.55.968-.83l.145-.13.252-.22.17-.14.243-.22.178-.15.238-.21.182-.16.235-.21.184-.16.233-.21.184-.16.232-.21.184-.17.232-.2.183-.17.231-.21.183-.16.231-.21.181-.17.232-.21.178-.16.234-.22.173-.16.237-.22.168-.15.242-.23.156-.14.253-.24.128-.12c.343-.32.686-.64 1.027-.97l.041-.04.272-.26.132-.12.251-.25.151-.14.242-.24.16-.15.236-.23.164-.16.233-.23.166-.16.231-.23.167-.16.229-.23.167-.16.229-.23.166-.17.229-.23.164-.16.229-.23.162-.16.231-.24.157-.16.235-.24.151-.15.24-.24.139-.15.251-.26.115-.11.273-.29.036-.04c.344-.35.686-.71 1.027-1.07l.07-.07.266-.28.118-.13.247-.26.135-.14.238-.26.143-.15.233-.25.147-.16.229-.25.149-.16.228-.25.149-.16.226-.25.149-.16.226-.25.148-.16.227-.25.144-.16.229-.26.14-.16.232-.26.134-.14.237-.27.124-.14.246-.28.103-.12.266-.3.051-.06c.44-.5.877-1.01 1.311-1.51l.073-.09.257-.3.105-.12.242-.29.119-.14.234-.27.126-.15.229-.27.13-.16.225-.27.131-.16.224-.27.132-.16.222-.27.131-.15.223-.28.128-.15.225-.28.124-.15.227-.28.119-.15.232-.28.109-.14.241-.3.091-.12.257-.32.054-.07c.434-.54.865-1.09 1.293-1.64l.003-.01.273-.35.069-.09.248-.32.093-.12.235-.31.104-.13.227-.3.111-.15.222-.29.114-.15.22-.29.114-.16.219-.29.114-.15.218-.29.113-.16.219-.29.109-.15.221-.3.104-.14.226-.31.094-.13.234-.33.08-.11.248-.34.05-.07c.509-.71 1.013-1.42 1.512-2.13l.021-.03.257-.37.063-.09.237-.34.08-.12.227-.33.09-.13.22-.32.094-.14.216-.32.097-.14.214-.32.098-.14.212-.32.097-.14.212-.32.095-.14.214-.33.089-.13.219-.33.081-.13.225-.34.069-.11.237-.36.045-.07c.573-.88 1.139-1.77 1.698-2.67l.026-.04.241-.38.055-.09.226-.37.068-.11.217-.35.076-.12.211-.35.08-.13.207-.34.082-.14.205-.34.082-.13.205-.34.08-.14.206-.34.076-.13.209-.35.069-.12.215-.37.058-.1.225-.38.04-.07.241-.41.004-.01c.539-.93 1.07-1.87 1.594-2.81l.026-.05.225-.4.047-.09.212-.38.057-.11.205-.37.064-.12.199-.37.067-.12.197-.36.067-.13.196-.37.066-.12.196-.37.064-.12.198-.37.058-.11.203-.39.048-.09.211-.41.034-.06.224-.435.007-.014c.578-1.12 1.144-2.246 1.7-3.379l.024-.049.208-.424.039-.08.197-.407.047-.098.191-.396.052-.108.187-.392.054-.112.185-.39.054-.114.184-.392.052-.11.186-.397.047-.102.189-.407.04-.087.196-.424.028-.062.206-.45.008-.018c.529-1.163 1.047-2.331 1.554-3.506v-.001l.202-.469.02-.049.189-.443.032-.075.181-.427.038-.09.175-.419.041-.098.173-.416.042-.101.171-.415.041-.1.172-.42.038-.092.174-.429.032-.08.178-.443.023-.057.186-.467.008-.02c.541-1.361 1.066-2.729 1.577-4.105l.003-.009.178-.483.017-.047.169-.461.025-.069.163-.448.029-.081.159-.442.031-.087.156-.44.031-.088.156-.442.029-.083.157-.449.026-.072.159-.462.019-.053.165-.483.007-.02c.535-1.567 1.049-3.143 1.544-4.728l.004-.012.155-.498.013-.044.148-.479.019-.063.142-.468.022-.072.14-.464.022-.076.139-.464.021-.073.138-.469.019-.065.14-.48.014-.048.144-.498.006-.02c.509-1.779.994-3.568 1.453-5.368l.005-.015.129-.511.011-.042.124-.495.014-.057.12-.487.016-.063.118-.485.016-.064.117-.488.014-.057.118-.497.011-.044.12-.512.005-.02c.465-1.996.9-4.004 1.303-6.023l.003-.018.104-.524.007-.039.1-.511.01-.05.097-.506.01-.053.095-.506.01-.051.095-.512.007-.04.096-.525.003-.02c.402-2.217.765-4.448 1.089-6.691l.003-.02.076-.534.005-.037.074-.525.006-.044.071-.523.006-.044.071-.527.005-.036.07-.537.003-.021c.291-2.258.544-4.527.756-6.809.553-5.926.835-11.93.835-18v-576h48z" class="logo__color logo__color_1"/><path d="m960 912h48v384h-48z" class="logo__color logo__color_3"/><path d="m1296 720h-48c0-185.443 150.56-336 336-336s336 150.557 336 336-150.56 336-336 336h-144v-48h144c158.95 0 288-129.048 288-288s-129.05-288-288-288-288 129.048-288 288z" class="logo__color logo__color_2" transform="translate(-336 192)"/><path d="m1680 96v576c0 185.443-150.56 336-336 336s-336-150.557-336-336 150.56-336 336-336h144v48h-144c-158.95 0-288 129.048-288 288s129.05 288 288 288 288-129.048 288-288v-576z" class="logo__color logo__color_3" transform="translate(-672 240)"/><path d="m1584 96h48v576c0 158.952-129.05 288-288 288s-288-129.048-288-288c0-158.951 129.05-287.999 288-288h144v48h-144c-132.46 0-240 107.54-240 240s107.54 240 240 240 240-107.54 240-240z" class="logo__color logo__color_2" transform="translate(-672 240)"/><path d="m1056 768.05c43.8-58.307 113.53-96.05 192-96.05 132.46 0 240 107.54 240 240s-107.54 240-240 240h-144v-48h144 .62.62l.21-.01h.41.25l.37-.01h.27.35l.28-.01.33-.01h.29l.33-.01.29-.01h.33l.29-.01.32-.01.3-.01.32-.01.3-.01.32-.01.3-.01.31-.01.3-.01.32-.01.3-.02.31-.01.3-.01.31-.02.3-.01.32-.02.3-.01.31-.02.3-.02.31-.02.3-.01.31-.02.3-.02.31-.02.31-.02.3-.02.31-.02.3-.02.31-.02.3-.02.3-.03.31-.02.3-.02.31-.03.3-.02.31-.03.3-.02.3-.03.31-.02.3-.03.3-.03.31-.02.3-.03.3-.03.3-.03.31-.03.3-.03.3-.03.3-.03.3-.03.31-.04.3-.03.3-.03.3-.03.3-.04.3-.03.31-.04.3-.03.3-.04.3-.03.3-.04.3-.04.3-.03.3-.04.3-.04.3-.04.3-.04.3-.04.3-.04.29-.04.3-.04.3-.04.3-.04.3-.04.3-.05.29-.04.31-.05.29-.04.3-.04.29-.05.31-.05.29-.04.3-.05.29-.04.3-.05.3-.05.3-.05.29-.05.3-.05.29-.05.3-.05.3-.05.29-.05.3-.05.29-.05.3-.05.29-.06.3-.05.29-.06.3-.05.29-.05.29-.06.3-.06.29-.05.3-.06.29-.06.3-.05.29-.06.29-.06.29-.06.3-.06.29-.06.29-.06.29-.06.3-.06.29-.06.29-.06.29-.06.29-.07.29-.06.3-.06.29-.07.29-.06.29-.07.29-.06.29-.07.29-.07.29-.06.29-.07.29-.07.29-.06.29-.07.29-.07.28-.07.3-.07.28-.07.29-.07.29-.07.29-.07.29-.07.29-.08.28-.07.29-.07.28-.08.29-.07.29-.08.29-.07.28-.08.29-.07.28-.08.29-.08.29-.07.29-.08.28-.08.29-.08.28-.07.29-.09.28-.07.29-.08.28-.08.29-.09.28-.08.28-.08.28-.08.29-.08.28-.09.29-.08.28-.08.28-.09.28-.08.29-.09.28-.08.28-.09.28-.09.29-.09.28-.08.28-.09.28-.09.28-.09.28-.08.28-.1.28-.08.28-.1.28-.09.28-.09.28-.09.28-.09.28-.09.28-.1.28-.09.28-.09.28-.1.28-.09.27-.09.28-.1.28-.1.28-.09.27-.1.28-.1.28-.09.28-.1.27-.1.28-.1.27-.1.28-.1.28-.1.27-.1.28-.1.27-.1.28-.1.28-.1.27-.1.27-.11.28-.1.27-.1.27-.11.28-.1.27-.1.28-.11.27-.11.27-.1.27-.11.28-.11.27-.1.27-.11.27-.11.28-.11.26-.1.28-.11.27-.11.27-.11.27-.11.27-.12.27-.1.27-.12.27-.11.27-.11.27-.11.27-.12.27-.11.27-.11.26-.12.28-.11.26-.12.27-.11.27-.12.27-.12.26-.11.27-.12.27-.12.27-.12.26-.11.27-.12.26-.12.27-.12.26-.12.27-.12.26-.12.27-.12.26-.12.27-.13.26-.12.27-.12.26-.12.27-.13.26-.12.26-.13.27-.12.26-.12.26-.13.27-.13.25-.12.27-.13.26-.12.26-.13.26-.13.26-.13.26-.12.27-.13.26-.13.26-.13.26-.13.26-.13.25-.13.27-.13.25-.13.26-.14.26-.13.26-.13.26-.13.26-.14.25-.13.26-.14.26-.13.26-.13.25-.14.26-.14.25-.13.26-.14.26-.13.25-.14.26-.14.25-.14.26-.13.25-.14.26-.14.25-.14.25-.14.26-.14.25-.14.26-.14.25-.14.25-.15.25-.14.26-.14.25-.14.25-.15.25-.14.26-.14.24-.15.26-.14.25-.14.25-.15.25-.15.25-.14.25-.15.25-.15.25-.14.25-.15.24-.15.25-.15.25-.14.25-.15.25-.15.25-.15.24-.15.25-.15.25-.15.24-.15.25-.16.25-.15.24-.15.25-.15.24-.15.25-.16.24-.15.25-.16.24-.15.25-.15.24-.16.24-.16.25-.15.24-.16.24-.15.25-.16.24-.16.24-.15.24-.16.25-.16.24-.16.24-.16.24-.16.24-.16.24-.16.24-.16.24-.16.24-.16.24-.16.24-.16.24-.16.24-.17.23-.16.24-.16.24-.16.24-.17.23-.16.24-.17.24-.16.24-.17.23-.16.24-.17.23-.16.24-.17.23-.17.24-.17.23-.16.24-.17.23-.17.24-.17.23-.17.23-.17.24-.16.23-.18.23-.17.24-.17.23-.17.23-.17.23-.17.23-.17.23-.17.23-.18.23-.17.23-.17.23-.18.23-.17.23-.18.23-.17.23-.17.23-.18.23-.18.23-.17.22-.18.23-.18.23-.17.23-.18.22-.18.23-.18.23-.17.22-.18.23-.18.22-.18.23-.18.22-.18.23-.18.22-.18.22-.18.23-.19.22-.18.23-.18.22-.18.22-.18.22-.19.23-.18.22-.18.22-.19.22-.18.22-.19.22-.18.22-.19.22-.18.22-.19.22-.18.22-.19.22-.19.22-.18.22-.19.22-.19.21-.19.22-.19.22-.19.21-.19.22-.18.22-.19.21-.19.22-.2.21-.19.22-.19.21-.19.22-.19.21-.19.22-.19.21-.2.22-.19.21-.19.21-.2.21-.19.22-.19.21-.2.21-.19.21-.2.21-.19.21-.2.22-.2.2-.19.22-.2.2-.2.21-.19.21-.2.21-.2.21-.2.21-.2.21-.19.2-.2.21-.2.21-.2.21-.2.2-.2.21-.2.2-.2.21-.21.21-.2.2-.2.2-.2.21-.2.2-.21.21-.2.2-.2.2-.21.21-.2.2-.21.2-.2.2-.21.2-.2.21-.21.2-.2.2-.21.2-.2.2-.21.2-.21.2-.21.2-.2.19-.21.2-.21.2-.21.2-.21.2-.21.2-.21.19-.2.2-.22.19-.21.2-.21.2-.21.19-.21.2-.21.19-.21.2-.21.19-.22.19-.21.2-.21.19-.21.19-.22.2-.21.19-.22.19-.21.19-.22.19-.21.2-.22.19-.21.19-.22.19-.21.19-.22.18-.22.2-.21.18-.22.19-.22.19-.22.19-.21.19-.22.18-.22.19-.22.19-.22.18-.22.19-.22.18-.22.19-.22.18-.22.19-.22.18-.22.19-.22.18-.23.18-.22.19-.22.18-.22.18-.22.18-.23.18-.22.19-.23.18-.22.18-.22.18-.23.18-.22.18-.23.18-.22.18-.23.18-.22.17-.23.18-.23.18-.22.18-.23.17-.23.18-.23.18-.22.17-.23.18-.23.18-.23.17-.23.18-.23.17-.23.17-.23.18-.23.17-.23.17-.23.18-.23.17-.23.17-.23.17-.23.17-.23.17-.24.17-.23.18-.23.17-.23.16-.24.17-.23.17-.23.17-.24.17-.23.17-.24.16-.23.17-.24.17-.23.17-.24.16-.23.17-.24.16-.24.17-.23.16-.24.17-.24.16-.23.17-.24.16-.24.16-.24.17-.24.16-.23.16-.24.16-.24.16-.24.16-.24.16-.24.16-.24.17-.24.15-.24.16-.24.16-.24.16-.25.16-.24.16-.24.15-.24.16-.24.16-.25.15-.24.16-.24.16-.25.15-.24.16-.24.15-.25.16-.24.15-.25.15-.24.16-.25.15-.24.15-.25.15-.24.15-.25.16-.25.15-.24.15-.25.15-.25.15-.24.15-.25.15-.25.15-.25.15-.25.14-.25.15-.24.15-.25.15-.25.14-.25.15-.25.14-.25.15-.25.15-.25.14-.25.14-.25.15-.26.14-.25.15-.25.14-.25.14-.25.14-.26.15-.25.14-.25.14-.25.14-.26.14-.25.14-.25.14-.26.14-.25.14-.26.14-.25.13-.26.14-.25.14-.26.14-.25.13-.26.14-.26.14-.25.13-.26.14-.26.13-.25.14-.26.13-.26.13-.26.14-.253.13-.259.13-.258.13-.259.14-.258.13-.26.13-.259.13-.26.13-.259.13-.261.13-.259.13-.261.13-.26.12-.262.13-.26.13-.262.13-.261.12-.262.13-.262.13-.263.12-.261.13-.264.12-.262.13-.264.12-.262.12-.264.13-.264.12-.264.12-.264.12-.265.13-.264.12-.265.12-.264.12-.266.12-.265.12-.267.12-.265.12-.267.12-.265.12-.267.11-.266.12-.268.12-.266.11-.269.12-.266.12-.269.11-.267.12-.269.11-.268.12-.269.11-.268.11-.27.12-.268.11-.271.11-.269.11-.27.12-.27.11-.271.11-.269.11-.272.11-.27.11-.272.11-.27.11-.273.1-.271.11-.272.11-.272.11-.273.1-.271.11-.274.1-.272.11-.274.11-.272.1-.275.1-.273.11-.275.1-.273.11-.275.1-.274.1-.275.1-.274.1-.276.1-.275.1-.276.1-.275.1-.277.1-.275.1-.277.1-.276.1-.277.1-.276.1-.278.09-.277.1-.278.09-.277.1-.279.1-.276.09-.28.09-.277.1-.28.09-.277.09-.281.1-.278.09-.28.09-.279.09-.281.09-.278.1-.282.09-.279.09-.281.09-.28.08-.282.09-.28.09-.282.09-.28.09-.283.08-.281.09-.283.09-.281.08-.283.09-.282.08-.284.09-.281.08-.285.08-.281.09-.285.08-.282.08-.286.08-.282.08-.286.09-.283.08-.286.08-.283.08-.286.08-.284.07-.287.08-.283.08-.287.08-.285.07-.287.08-.285.08-.288.07-.284.08-.289.07-.285.08-.288.07-.286.08-.289.07-.286.07-.289.08-.286.07-.29.07-.286.07-.29.07-.287.07-.291.07-.287.07-.29.07-.288.07-.291.06-.288.07-.291.07-.288.07-.292.06-.288.07-.293.06-.288.07-.293.06-.289.07-.293.06-.289.06-.293.07-.29.06-.294.06-.289.06-.295.06-.289.06-.295.06-.29.06-.295.06-.291.06-.295.06-.291.06-.295.05-.292.06-.296.06-.291.05-.296.06-.292.06-.297.05-.291.06-.298.05-.292.05-.297.06-.293.05-.297.05-.293.05-.298.05-.293.05-.299.05-.293.05-.299.05-.293.05-.299.05-.294.05-.3.05-.294.04-.3.05-.294.05-.3.04-.295.05-.3.04-.295.04-.301.05-.295.04-.301.05-.295.04-.302.04-.296.04-.302.04-.295.04-.303.04-.295.04-.303.04-.296.04-.304.04-.296.04-.304.03-.296.04-.304.04-.296.03-.305.04-.297.03-.304.04-.297.03-.306.04-.297.03-.305.03-.297.04-.306.03-.298.03-.306.03-.298.03-.307.03-.297.03-.308.03-.297.03-.308.03-.298.02-.308.03-.298.03-.309.02-.298.03-.309.02-.298.03-.31.02-.298.03-.31.02-.298.02-.311.03-.298.02-.311.02-.298.02-.312.02-.298.02-.312.02-.298.02-.313.02-.298.02-.314.01-.297.02-.315.02-.297.02-.316.01-.297.02-.316.01-.296.02-.318.01-.296.01-.318.02-.296.01-.319.01-.295.01-.321.01-.294.01-.322.01-.293.01-.324.01-.292.01-.326.01-.29v-.329l.01-.288.01-.333v-.285l.01-.336.01-.281v-.344-.274l.01-.354v-.265-.372l.01-.247v-.413-.207-.62c0-4.104-.13-8.178-.38-12.219-.04-.635-.09-1.27-.13-1.904-.47-6.468-1.27-12.849-2.36-19.124-.1-.558-.2-1.115-.3-1.671-.49-2.667-1.04-5.316-1.64-7.944-.11-.475-.22-.95-.33-1.424-.25-1.036-.5-2.069-.76-3.099l-.15-.575c-.08-.307-.16-.613-.24-.919-.09-.368-.19-.735-.29-1.103-.12-.432-.24-.865-.36-1.296-.2-.736-.41-1.471-.62-2.203-.13-.441-.26-.881-.39-1.321-.08-.272-.16-.545-.24-.817-.14-.452-.28-.903-.42-1.354-.07-.22-.13-.439-.2-.659l-.18-.562c-.12-.38-.24-.76-.37-1.14-.74-2.289-1.53-4.56-2.36-6.811-.25-.693-.51-1.383-.77-2.072-.72-1.885-1.46-3.756-2.24-5.612l-.14-.337-.18-.422c-.61-1.449-1.24-2.889-1.89-4.319-1.23-2.725-2.52-5.416-3.88-8.072-.3-.6-.61-1.199-.92-1.796l-.08-.15-.18-.335c-3.89-7.386-8.24-14.489-13.03-21.268l-.08-.116-.27-.386c-.44-.613-.88-1.225-1.32-1.833l-.09-.126-.02-.02c-.66-.91-1.33-1.814-2.01-2.712-.13-.169-.26-.338-.39-.507-.89-1.169-1.79-2.327-2.71-3.475-.88-1.105-1.78-2.199-2.68-3.284l-.37-.442c-.27-.321-.54-.642-.82-.961l-.3-.358-.38-.437-.37-.436-.38-.435-.38-.434-.06-.073c-1.03-1.163-2.06-2.314-3.11-3.452l-.3-.327-.39-.422c-1-1.074-2.01-2.137-3.04-3.188l-.14-.147-.31-.309c-.64-.66-1.29-1.315-1.95-1.965l-.18-.177-.14-.138c-1.04-1.024-2.09-2.037-3.15-3.038-.2-.192-.41-.385-.61-.577-2.42-2.257-4.9-4.453-7.42-6.584-.22-.177-.43-.354-.64-.53-.92-.775-1.86-1.541-2.8-2.299l-.3-.236-.41-.326c-.31-.251-.62-.5-.94-.749l-.46-.356c-.43-.338-.86-.675-1.3-1.01-.58-.445-1.16-.886-1.75-1.324-.52-.392-1.04-.781-1.57-1.168-5.1-3.746-10.4-7.247-15.87-10.483-.23-.138-.47-.276-.7-.413-.77-.452-1.55-.899-2.33-1.341-.5-.286-1.01-.57-1.52-.852-.42-.234-.84-.467-1.26-.698-2.49-1.354-5-2.655-7.55-3.902l-.47-.227c-1.03-.501-2.06-.993-3.1-1.475l-.05-.024-.53-.244-.53-.243c-.33-.146-.65-.292-.97-.436-1.1-.494-2.2-.977-3.31-1.45-.64-.277-1.3-.55-1.95-.82l-.2-.085-.3-.121c-1.36-.56-2.73-1.104-4.11-1.634-.46-.176-.92-.351-1.39-.525-.43-.162-.87-.324-1.3-.484l-.55-.201c-.65-.236-1.31-.468-1.96-.697l-.26-.091-.26-.091c-.39-.137-.79-.272-1.18-.406-.5-.169-1-.336-1.49-.501l-.41-.135-.53-.171c-.35-.116-.71-.231-1.07-.345l-.09-.028-.5-.16c-.53-.167-1.06-.332-1.6-.495-.24-.075-.49-.15-.74-.225-2.44-.734-4.89-1.42-7.37-2.058-.7-.181-1.41-.359-2.12-.532-1.48-.363-2.96-.709-4.45-1.037l-.4-.087-.32-.069c-1.64-.356-3.29-.69-4.95-1.003l-.59-.11-.59-.108-.26-.047c-.56-.101-1.11-.199-1.67-.295-3.72-.638-7.48-1.169-11.27-1.589l-.53-.058-.03-.003c-2.31-.25-4.63-.458-6.96-.624-.51-.036-1.01-.07-1.52-.102l-.61-.038-.61-.036-.61-.034-.4-.021c-.28-.014-.55-.028-.83-.041l-.61-.028c-.47-.021-.94-.04-1.4-.057-.48-.018-.95-.034-1.42-.048l-.26-.008-.62-.016c-.29-.008-.58-.014-.87-.02-.95-.02-1.89-.033-2.84-.039l-.62-.003c-.21-.001-.41-.001-.62-.001l-.6.001-.2.001-.41.002-.24.002-.36.002-.26.003-.34.004-.27.004-.33.004-.27.005-.34.006-.27.005-.33.007-.27.006-.33.008-.27.007-.33.008-.27.008-.33.01-.27.009-.33.011-.27.009-.34.012-.26.01-.34.013-.26.011-.35.015-.25.011-.37.017-.23.01-.45.022-.14.007-.6.032-.15.008-.44.025-.23.013-.37.022-.24.015-.35.021-.26.017-.34.022-.26.017-.33.023-.27.019-.33.023-.27.02-.32.024-.27.021-.32.025-.27.021-.33.026-.27.023-.32.027-.27.023-.32.028-.27.024-.33.03-.26.023-.34.032-.25.024-.35.034-.24.023-.39.04-.19.019-.59.06-.04.005-.55.058-.2.022-.39.042-.23.027-.35.039-.25.029-.34.039-.26.031-.32.039-.27.032-.32.039-.26.033-.32.04-.27.034-.32.041-.26.035-.32.042-.27.036-.32.043-.26.036-.32.044-.26.037-.33.046-.26.036-.33.048-.25.037-.34.05-.24.036-.36.055-.22.032-.45.07-.13.02-.57.091-.17.026-.41.067-.22.036-.36.059-.24.04-.33.056-.26.043-.32.056-.26.044-.32.055-.26.046-.31.056-.26.047-.32.057-.26.047-.31.058-.26.048-.32.059-.26.049-.31.06-.26.049-.32.061-.25.05-.32.063-.25.05-.33.065-.24.049-.35.07-.22.046-.39.08-.18.037-.57.12-.08.016-.49.105-.2.043-.37.079-.23.051-.33.073-.25.055-.32.071-.25.057-.31.071-.26.058-.31.072-.26.059-.31.072-.25.06-.31.073-.26.061-.3.073-.26.062-.31.075-.25.062-.31.076-.26.063-.31.077-.25.063-.31.08-.25.061-.33.084-.23.06-.35.091-.21.054-.44.116-.11.03-.56.148-.17.046-.39.104-.22.059-.33.092-.24.065-.32.088-.24.069-.31.086-.25.07-.31.086-.25.072-.3.087-.26.073-.3.086-.25.074-.3.088-.25.075-.3.088-.25.075-.3.09-.25.076-.31.091-.24.075-.31.094-.24.075-.32.097-.23.073-.33.103-.22.068-.37.117-.18.056-.54.174-.11.036-.44.141-.2.066-.34.111-.23.076-.31.104-.24.079-.31.102-.24.082-.3.101-.25.084-.29.1-.25.085-.29.101-.26.086-.29.101-.25.088-.29.101-.25.089-.29.102-.25.089-.29.104-.24.089-.3.106-.24.088-.3.109-.24.087-.31.114-.22.083-.33.124-.21.075-.42.158-.11.043-.53.2-.19.071-.34.133-.22.085-.32.12-.23.091-.3.116-.24.094-.29.114-.24.096-.29.113-.24.099-.29.113-.24.099-.29.114-.24.1-.28.114-.25.101-.28.115-.25.102-.28.116-.24.102-.29.118-.24.101-.28.121-.24.1-.29.124-.24.099-.3.13-.22.094-.34.147-.18.078-.51.225-.15.066-.37.163-.22.093-.3.136-.23.102-.29.13-.24.106-.28.127-.24.109-.27.125-.25.111-.27.125-.24.112-.27.125-.25.114-.27.126-.24.114-.27.126-.25.115-.27.127-.24.116-.27.128-.24.116-.27.13-.24.115-.28.133-.23.114-.28.137-.23.111-.3.147-.21.103-.37.184-.13.066-.05.024-.46.226-.2.102-.3.152-.22.114-.28.142-.24.118-.27.139-.24.121-.26.137-.24.124-.26.136-.24.125-.26.136-.25.127-.25.136-.25.127-.25.137-.25.128-.25.138-.24.129-.26.138-.24.129-.26.14-.24.13-.26.141-.23.129-.27.144-.23.128-.27.149-.22.124-.29.164-.2.111-.49.271-.19.108-.3.169-.22.126-.27.153-.23.132-.25.148-.24.135-.25.146-.24.138-.25.145-.24.14-.25.145-.23.14-.25.145-.24.142-.25.146-.24.142-.24.146-.24.143-.24.147-.24.144-.25.148-.23.144-.25.149-.23.144-.25.151-.23.144-.25.153-.23.143-.26.158-.22.139-.29.181-.18.115-.17.109-.3.187-.22.142-.25.159-.24.148-.24.155-.23.151-.24.153-.24.152-.23.153-.24.154-.23.153-.24.155-.23.153-.24.156-.23.153-.24.157-.23.154-.24.158-.23.153-.23.159-.23.155-.24.159-.23.155-.23.161-.23.155-.24.161-.23.157-.23.161-.23.157-.23.163-.23.158-.23.162-.45.313-.23.166-.23.157-.23.167-.23.157-.23.168-.22.158-.24.169-.22.157-.23.171-.22.158-.24.171-.21.158-.24.172-.22.159-.23.172-.22.16-.23.173-.22.16-.23.174-.22.16-.23.176-.22.159-.23.177-.21.16-.24.178-.21.159-.23.18-.21.157-.24.184-.2.152-.24.19-.16.121-.28.215-.27.214-.16.124-.25.195-.19.15-.24.19-.2.157-.24.188-.2.16-.24.188-.2.161-.23.188-.2.162-.24.188-.2.163-.23.189-.21.163-.23.19-.2.164-.23.191-.2.163-.23.193-.2.163-.23.194-.2.162-.23.196-.19.161-.24.199-.19.157-.24.204-.18.148-.25.214-.14.121c-.32.276-.64.553-.97.831l-.14.125-.25.218-.17.148-.25.212-.17.156-.24.209-.18.16-.24.208-.18.162-.24.207-.18.164-.23.208-.19.165-.23.207-.18.166-.23.209-.18.165-.24.21-.18.165-.23.212-.18.163-.23.215-.17.16-.24.219-.17.156-.24.225-.16.145-.25.236-.13.121c-.34.322-.68.646-1.03.972l-.04.038-.27.26-.13.126-.25.241-.15.146-.24.233-.16.155-.24.23-.16.16-.24.227-.16.163-.23.227-.17.164-.23.227-.17.165-.23.228-.16.165-.23.229-.16.165-.23.231-.17.162-.23.235-.15.159-.24.239-.15.153-.24.246-.14.143-.25.258-.11.119-.28.282-.03.038c-.35.356-.69.714-1.03 1.073l-.07.074-.27.281-.11.125-.25.263-.14.143-.24.255-.14.153-.23.25-.15.159-.23.248-.15.161-.22.248-.15.163-.23.247-.15.163-.22.249-.15.163-.23.251-.14.16-.23.255-.14.157-.23.259-.14.15-.23.267-.13.14-.25.279-.1.117-.26.302-.05.059c-.44.502-.88 1.006-1.32 1.512l-.07.085-.26.301-.1.124-.24.285-.12.14-.24.277-.12.149-.23.272-.13.155-.23.27-.13.158-.22.269-.13.16-.22.269-.14.159-.22.272-.13.157-.22.275-.13.153-.22.28-.12.147-.23.287-.11.136-.24.3-.1.115-.25.322-.06.068c-.43.546-.86 1.094-1.29 1.645v.005l-.27.352-.07.089-.25.322-.09.121-.24.307-.1.136-.23.299-.11.145-.22.294-.12.15-.22.293-.11.152-.22.292-.12.153-.21.294-.12.152-.22.296-.1.148-.22.301-.11.142-.22.309-.1.131-.23.322-.08.11-.25.343-.05.07c-.51.708-1.01 1.419-1.51 2.133l-.02.03-.26.37-.06.089-.24.343-.08.116-.23.33-.09.13-.22.322-.09.139-.22.317-.1.144-.21.315-.1.146-.21.316-.1.145-.21.318-.09.142-.22.323-.09.135-.22.332-.08.124-.22.343-.07.106-.24.363-.04.071c-.58.883-1.14 1.772-1.7 2.665l-.03.042-.24.387-.05.087-.23.365-.07.111-.21.351-.08.125-.21.344-.08.132-.21.341-.08.135-.2.34-.09.136-.2.342-.08.133-.21.346-.07.128-.21.353-.07.118-.22.364-.05.1-.23.384-.04.069-.24.416v.006c-.54.931-1.07 1.868-1.6 2.809l-.02.047-.23.406-.05.084-.21.386-.05.105-.21.374-.06.117-.2.367-.07.123-.2.365-.06.126-.2.365-.07.124-.19.369-.07.119-.19.376-.06.109-.2.387-.05.094-.21.403-.04.066-.22.433-.01.014c-.58 1.12-1.14 2.246-1.7 3.379l-.02.049-.21.424-.04.08-.2.407-.04.098-.19.396-.06.108-.18.392-.06.112-.18.39-.06.114-.18.392-.05.11-.19.397-.05.102-.19.407-.03.087-.2.424-.03.062-.21.45v.018c-.53 1.163-1.05 2.331-1.56 3.506v.001l-.2.469-.02.049-.19.443-.03.075-.18.427-.04.09-.17.419-.05.098-.17.416-.04.101-.17.415-.04.1-.17.42-.04.092-.18.429-.03.08-.18.443-.02.057-.18.467-.01.02c-.54 1.361-1.07 2.729-1.58 4.105v.009l-.18.483-.02.047-.17.461-.02.069-.16.448-.03.081-.16.442-.03.087-.16.44-.03.088-.16.442-.03.083-.15.449-.03.072-.16.462-.02.053-.16.483-.01.02c-.53 1.567-1.05 3.143-1.54 4.728l-.01.012-.15.498-.01.044-.15.479-.02.063-.14.468-.03.072-.14.464-.02.076-.14.464-.02.073-.14.469-.02.065-.13.48-.02.048-.14.498-.01.02c-.51 1.779-.99 3.568-1.45 5.368l-.01.015-.13.511-.01.042-.12.495-.02.057-.11.487-.02.063-.12.485-.02.064-.11.488-.02.057-.11.497-.02.044-.11.512-.01.02c-.46 1.996-.9 4.004-1.3 6.023l-.01.018-.1.524-.01.039-.1.511-.01.05-.09.506-.01.053-.1.506-.01.051-.09.512-.01.04-.1.525v.02c-.4 2.217-.76 4.448-1.09 6.691v.02l-.08.534v.037l-.08.525v.044l-.07.523-.01.044-.07.527-.01.036-.07.537v.021c-.29 2.258-.54 4.527-.75 6.809-.56 5.926-.84 11.93-.84 18v384h-48v-198.07c-65.531 118.08-191.498 198.07-336 198.07-211.935 0-384-172.07-384-384 0-211.935 172.065-384 384-384h144v48h-144c-185.444 0-336 150.557-336 336 0 185.44 150.557 336 336 336s336-150.56 336-336v-576h48z" class="logo__color logo__color_4"/></g></svg>
