<?xml version="1.0" standalone="no"?>
<!DOCTYPE svg PUBLIC "-//W3C//DTD SVG 20010904//EN"
 "http://www.w3.org/TR/2001/REC-SVG-20010904/DTD/svg10.dtd">
<svg version="1.0" xmlns="http://www.w3.org/2000/svg"
 width="936.000000pt" height="936.000000pt" viewBox="0 0 936.000000 936.000000"
 preserveAspectRatio="xMidYMid meet">
<metadata>
Created by potrace 1.11, written by Peter Selinger 2001-2013
</metadata>
<g transform="translate(0.000000,936.000000) scale(0.100000,-0.100000)"
fill="#000000" stroke="none">
<path d="M2701 9308 c-14 -68 -15 -71 -46 -213 -15 -66 -31 -147 -38 -180 -6
-33 -13 -62 -16 -65 -4 -3 -7 -14 -7 -25 -1 -11 -5 -33 -8 -50 -3 -16 -9 -47
-12 -67 -4 -21 -9 -36 -13 -34 -3 2 -6 -11 -5 -30 1 -19 -1 -34 -5 -34 -3 0
-6 -10 -7 -22 0 -13 -3 -34 -7 -48 -7 -30 -33 -154 -42 -195 -3 -17 -8 -41
-11 -55 -3 -13 -9 -29 -15 -36 -5 -6 -6 -13 -3 -16 3 -3 -2 -41 -11 -84 -9
-44 -19 -90 -21 -104 -3 -14 -12 -54 -20 -90 -9 -36 -17 -76 -19 -90 -3 -14
-7 -36 -10 -50 -3 -14 -10 -47 -16 -75 -6 -27 -15 -68 -20 -90 -5 -22 -12 -59
-16 -82 -3 -24 -9 -43 -13 -43 -4 0 -6 -11 -5 -25 2 -14 0 -25 -3 -25 -4 0 -7
-10 -8 -22 -1 -27 -14 -98 -38 -198 -4 -14 -9 -38 -11 -55 -12 -69 -49 -230
-54 -235 -3 -3 -7 -25 -9 -50 -2 -25 -7 -47 -12 -48 -6 -2 -8 -8 -5 -12 3 -5
0 -30 -6 -57 -6 -26 -12 -57 -15 -68 -21 -109 -77 -373 -81 -385 -3 -8 -7 -24
-9 -35 -1 -11 -5 -31 -7 -45 -3 -14 -12 -59 -21 -100 -8 -41 -21 -104 -30
-140 -8 -36 -17 -76 -20 -90 -2 -14 -14 -68 -26 -120 -12 -52 -23 -111 -26
-130 -2 -19 -9 -48 -13 -65 -9 -27 -37 -164 -47 -225 -2 -14 -7 -35 -9 -48 -3
-12 -8 -43 -11 -69 -3 -26 -7 -50 -9 -53 -2 -3 -7 -33 -10 -65 -4 -33 -9 -69
-11 -80 -4 -18 -14 -119 -18 -170 -1 -11 -5 -26 -9 -32 -5 -8 -3 -13 3 -13 6
0 8 -5 4 -11 -8 -14 -8 -234 0 -344 7 -84 11 -119 27 -223 5 -35 6 -68 3 -75
-4 -7 -3 -8 2 -4 10 9 46 -132 37 -146 -3 -6 -1 -7 5 -3 10 6 15 -11 11 -40 0
-4 4 -10 10 -14 7 -3 13 -20 14 -37 1 -17 5 -29 9 -27 7 4 23 -35 20 -49 -1
-4 3 -7 8 -7 5 0 9 -3 8 -7 -2 -12 13 -45 36 -77 12 -19 15 -27 5 -21 -7 4 -4
-2 9 -14 12 -12 20 -26 17 -32 -4 -5 -1 -9 5 -9 6 0 14 -8 17 -17 4 -9 16 -28
27 -41 12 -13 20 -26 18 -28 -1 -2 9 -16 23 -30 14 -14 22 -30 19 -36 -4 -6
-3 -8 3 -5 13 8 86 -70 78 -83 -3 -6 0 -7 9 -4 9 4 31 -10 56 -34 22 -22 40
-38 40 -35 0 3 7 0 15 -7 8 -7 12 -17 8 -24 -3 -6 -3 -8 2 -4 11 10 47 -11 40
-22 -4 -6 1 -7 11 -3 12 4 15 3 10 -5 -5 -8 -2 -10 8 -6 9 3 16 1 16 -5 0 -6
6 -11 13 -11 7 0 33 -13 58 -28 24 -16 47 -29 51 -31 4 -1 23 -8 42 -16 20 -8
40 -15 46 -15 6 0 13 -7 16 -15 4 -8 10 -13 14 -10 9 6 113 -25 120 -36 3 -4
14 -7 25 -6 15 2 20 -4 19 -20 -1 -13 3 -20 7 -17 5 3 7 9 4 14 -7 12 12 23
25 15 8 -5 7 -12 -2 -23 -11 -15 -11 -15 7 0 20 17 35 17 118 2 17 -3 42 -5
55 -5 12 0 22 -4 22 -10 0 -6 -7 -8 -16 -5 -8 3 -13 2 -10 -3 8 -12 -52 -53
-66 -45 -6 4 -8 3 -5 -3 3 -5 -8 -20 -26 -34 -99 -73 -245 -223 -355 -364 -4
-5 -29 -44 -55 -86 -83 -133 -150 -313 -183 -494 -1 -5 -3 -12 -4 -15 -13 -35
-23 -492 -10 -524 5 -13 10 -45 12 -72 2 -27 6 -52 11 -55 4 -3 8 -24 10 -46
1 -23 5 -39 8 -37 3 2 14 -23 24 -54 9 -31 26 -74 37 -95 10 -21 16 -43 12
-49 -4 -7 -3 -8 4 -4 7 4 12 2 12 -4 0 -7 9 -25 21 -42 12 -16 18 -32 15 -35
-3 -3 3 -13 14 -20 11 -8 18 -19 15 -24 -4 -5 -1 -9 6 -9 7 0 9 -3 6 -6 -3 -4
5 -15 18 -26 14 -11 25 -25 25 -33 0 -7 7 -16 16 -19 9 -4 14 -9 11 -12 -3 -3
15 -26 39 -50 25 -24 42 -44 37 -45 -4 0 2 -4 15 -9 12 -5 22 -15 22 -22 0 -7
10 -18 23 -23 12 -6 21 -16 19 -23 -1 -7 4 -12 11 -12 7 0 27 -13 45 -30 18
-16 35 -30 38 -30 11 0 44 -36 44 -50 0 -13 1 -13 10 0 6 10 10 11 10 3 0 -7
6 -13 13 -13 7 0 23 -9 35 -20 12 -11 26 -20 32 -20 6 0 15 -10 20 -22 5 -13
9 -17 9 -10 1 10 8 9 31 -3 17 -9 28 -20 25 -26 -4 -5 -3 -9 2 -8 31 5 55 -4
63 -23 5 -13 9 -17 9 -10 1 7 6 10 11 7 6 -4 8 -9 6 -13 -2 -4 10 -8 27 -8 17
-1 33 -6 35 -13 2 -6 9 -8 15 -4 7 4 8 0 3 -12 -5 -15 -4 -16 9 -5 10 8 19 9
28 3 6 -6 47 -20 89 -33 67 -20 76 -26 65 -39 -11 -15 -10 -15 8 0 24 19 82
11 77 -11 -2 -10 0 -11 11 -2 8 7 27 9 46 6 32 -7 40 -19 19 -27 -10 -4 -10
-6 0 -6 7 -1 15 5 18 12 3 8 17 11 40 9 30 -4 33 -6 22 -21 -11 -14 -11 -14 3
-4 9 7 20 9 24 5 5 -4 5 -1 1 6 -9 15 -1 15 24 2 13 -7 21 -7 25 0 4 6 13 7
23 2 9 -5 37 -8 62 -7 27 1 53 -5 65 -14 18 -15 19 -15 7 1 -11 14 -10 17 5
20 10 3 27 -3 37 -11 15 -12 17 -12 11 -2 -6 11 -4 13 8 8 10 -3 17 -3 17 1 0
4 30 8 68 10 88 3 125 7 137 13 6 3 31 5 57 5 25 -1 44 2 42 5 -2 4 5 9 16 12
18 4 24 -3 22 -24 -1 -3 6 -6 14 -6 10 0 11 4 4 11 -17 17 -11 29 10 23 11 -3
23 -1 26 5 3 5 15 8 25 5 11 -3 19 -2 19 3 0 4 12 10 28 13 15 3 36 9 46 13
14 5 17 4 12 -4 -4 -7 -2 -12 3 -12 6 0 11 7 11 16 0 12 7 15 25 12 13 -3 22
-1 19 3 -3 5 2 10 10 10 29 3 34 4 42 12 12 12 26 8 19 -5 -4 -7 -1 -6 7 3 15
17 45 32 68 33 8 0 17 3 20 6 10 13 139 68 144 62 3 -3 6 0 6 6 0 7 7 12 16
12 9 0 12 -5 8 -12 -4 -7 -3 -8 5 -4 6 4 9 11 7 15 -5 8 107 75 119 72 4 -1
12 5 19 14 6 9 21 17 33 18 12 0 20 4 17 8 -2 4 13 18 33 30 21 13 40 27 41
31 2 4 10 8 18 8 8 0 14 5 14 11 0 8 6 7 17 -2 9 -8 14 -9 11 -4 -9 14 -1 24
47 60 22 16 51 39 64 52 14 12 29 19 34 16 6 -3 7 -2 4 4 -8 12 80 96 93 88 5
-3 7 0 5 7 -6 14 72 95 87 91 4 -2 5 4 2 12 -4 8 -1 15 6 15 6 0 8 5 5 10 -5
9 6 14 26 12 3 -1 6 5 6 11 0 20 34 67 44 61 5 -3 6 1 4 8 -3 8 3 23 14 35 11
11 17 24 14 27 -4 3 -1 6 5 6 6 0 21 21 33 46 13 25 28 48 33 51 5 4 6 1 1 -7
-5 -9 -4 -11 4 -6 6 4 9 12 5 17 -3 6 6 28 20 49 14 22 26 42 26 44 0 2 20 46
45 98 25 51 45 99 45 106 0 6 5 12 11 12 5 0 7 4 4 10 -3 5 -1 10 4 10 6 0 10
3 9 8 -1 4 4 23 11 42 8 19 15 38 16 43 1 4 4 9 5 12 1 3 3 8 4 13 1 4 4 12 8
17 3 6 11 29 17 53 7 23 16 40 21 37 6 -4 7 1 3 11 -5 13 -3 15 8 9 11 -6 11
-5 3 4 -9 10 -9 21 0 44 6 18 13 34 16 37 3 3 6 18 8 35 2 16 8 33 14 36 6 4
8 11 4 17 -3 6 -1 23 5 39 14 32 15 36 23 78 3 17 11 46 16 65 6 19 13 53 16
75 3 21 8 43 11 48 2 4 7 27 10 50 2 23 7 44 11 47 4 3 9 23 11 45 1 22 6 42
10 45 3 3 7 23 9 45 2 22 8 56 14 75 10 32 14 51 17 93 1 12 5 16 14 11 9 -6
9 -5 0 7 -8 11 -8 23 2 53 8 22 12 43 9 47 -2 4 0 10 5 14 6 3 8 12 4 20 -3 8
-1 15 4 15 5 0 9 10 9 23 -1 34 26 167 33 163 3 -3 7 8 7 22 3 70 5 83 13 78
4 -3 6 6 3 21 -3 15 -1 24 5 20 5 -3 8 6 5 24 -2 16 0 29 4 29 5 0 10 15 10
33 1 26 31 171 59 292 3 11 7 31 10 45 3 14 7 36 10 50 3 14 8 39 11 55 3 17
7 37 9 45 2 8 4 23 4 33 1 11 6 15 13 11 6 -4 8 -3 5 3 -9 14 3 104 13 98 4
-2 5 7 2 22 -3 15 -1 23 4 20 6 -3 8 9 6 30 -4 27 -1 34 8 28 8 -5 11 -4 6 3
-3 6 -1 32 5 59 17 74 17 77 18 96 1 12 5 16 14 11 9 -6 9 -5 0 8 -7 8 -10 17
-7 20 2 3 7 18 10 34 3 15 12 60 20 99 23 105 23 106 30 149 3 22 7 43 9 47 2
3 7 21 10 40 3 19 10 50 15 69 5 19 12 53 16 75 3 22 8 44 12 49 3 5 7 27 9
49 2 21 6 44 10 50 4 7 8 27 10 46 1 18 7 39 13 46 5 6 7 14 4 17 -3 3 -1 23
5 44 6 22 13 57 17 79 3 22 9 42 13 45 3 3 6 16 5 30 0 14 7 34 15 44 12 15
12 17 2 11 -11 -6 -13 -4 -7 11 5 10 10 36 13 56 3 21 9 36 12 34 4 -3 6 8 5
22 0 15 5 50 12 77 7 28 16 68 18 90 3 22 12 65 20 95 7 30 17 72 20 93 4 20
12 37 19 37 9 0 9 2 0 8 -13 8 -6 62 9 62 5 0 7 4 4 9 -8 12 25 181 34 176 4
-2 6 6 5 18 -1 12 2 40 7 62 11 47 12 49 38 185 12 58 24 112 27 120 3 8 8 26
9 40 2 14 5 34 8 45 2 11 5 28 5 38 1 10 4 16 9 14 4 -3 7 9 8 26 0 18 4 48 7
67 4 19 10 50 13 67 4 18 9 31 13 29 3 -2 6 10 7 27 0 18 15 100 33 182 17 83
34 161 37 175 3 14 8 34 11 45 4 11 8 28 9 38 1 9 2 18 4 20 1 1 3 11 4 22 10
77 18 115 26 110 4 -3 6 5 2 17 -4 16 -2 19 9 13 11 -6 11 -5 3 4 -9 10 -8 27
2 70 7 32 16 71 19 87 8 39 13 59 15 59 1 0 3 14 5 30 2 17 6 39 9 50 2 11 5
26 5 33 1 7 4 11 9 9 4 -3 7 9 6 26 -1 27 3 46 21 117 2 8 4 23 4 33 1 10 5
16 9 13 5 -3 7 11 6 30 -2 19 1 34 5 34 5 0 7 10 3 22 -3 11 -1 19 4 15 5 -3
10 7 10 21 3 69 5 83 12 79 4 -3 7 9 8 26 1 27 8 65 39 207 2 8 4 15 5 15 1 0
3 9 4 20 2 11 7 40 11 65 5 25 8 48 7 53 -1 4 2 7 7 7 5 0 9 6 8 13 -1 44 4
68 15 61 7 -4 8 -3 4 5 -9 13 14 152 23 147 3 -2 7 19 9 47 1 27 8 63 16 79 8
15 10 25 4 22 -7 -4 -8 -2 -4 5 4 6 9 24 12 39 9 54 26 137 31 152 3 8 7 22 8
30 9 53 21 114 27 140 3 13 -118 15 -1034 18 l-1037 2 -10 -37 c-8 -31 -17
-69 -29 -125 -1 -5 -2 -9 -3 -10 -1 -3 -1 -4 -23 -112 -9 -44 -18 -82 -20 -85
-2 -3 -7 -28 -10 -55 -4 -27 -9 -52 -11 -55 -1 -3 -6 -23 -9 -43 -3 -21 -10
-57 -15 -80 -6 -24 -12 -54 -15 -68 -3 -14 -12 -56 -21 -95 -8 -38 -18 -86
-21 -105 -3 -19 -8 -38 -11 -43 -2 -4 -6 -20 -9 -35 -14 -87 -28 -138 -38
-144 -8 -6 -7 -8 2 -8 7 0 10 -5 7 -10 -4 -6 -8 -20 -11 -33 -11 -60 -14 -70
-26 -85 -10 -12 -10 -14 0 -8 14 9 15 5 3 -27 -6 -14 -13 -44 -16 -68 -4 -24
-11 -51 -15 -60 -5 -9 -7 -18 -5 -20 2 -3 -1 -22 -6 -44 -5 -22 -12 -51 -15
-65 -3 -13 -12 -56 -20 -95 -9 -38 -17 -81 -20 -95 -2 -14 -7 -36 -10 -50 -4
-14 -8 -34 -10 -45 -2 -11 -8 -38 -13 -60 -5 -22 -12 -53 -15 -70 -8 -46 -47
-227 -60 -285 -4 -14 -9 -41 -12 -60 -3 -19 -8 -44 -11 -55 -4 -11 -8 -24 -9
-30 -10 -48 -15 -74 -19 -95 -2 -14 -7 -35 -10 -47 -7 -31 -14 -63 -20 -98 -4
-16 -15 -72 -27 -123 -25 -117 -26 -123 -27 -145 -1 -10 -4 -16 -8 -14 -5 3
-9 -18 -10 -46 -1 -28 -6 -53 -11 -56 -4 -3 -7 -13 -7 -21 1 -13 -17 -108 -31
-162 -2 -10 -6 -28 -9 -40 -11 -54 -16 -74 -19 -93 -3 -11 -9 -40 -15 -65 -5
-25 -13 -61 -16 -80 -21 -123 -89 -420 -110 -482 -14 -40 -27 -80 -30 -88 -2
-8 -17 -46 -33 -85 -113 -272 -259 -471 -402 -549 -84 -46 -235 -71 -292 -48
-25 10 -59 58 -63 89 -2 16 -4 30 -5 33 -1 3 -1 13 0 24 1 10 -2 16 -7 13 -15
-9 -15 214 -1 231 11 13 11 14 -1 7 -11 -6 -13 -4 -7 11 5 10 9 33 11 49 2 17
6 41 9 55 4 14 9 38 12 55 3 16 10 33 17 37 9 6 9 8 0 8 -9 0 -9 11 2 45 16
54 15 51 15 71 0 9 5 12 13 8 9 -5 9 -4 0 6 -8 9 -9 20 -1 39 5 14 11 40 13
56 2 17 6 41 10 55 3 14 9 42 12 63 3 20 10 37 15 37 5 0 7 4 4 9 -7 10 28
184 35 177 2 -2 5 8 5 22 2 61 4 73 12 68 5 -3 6 8 4 25 -2 16 0 29 5 29 5 0
8 14 5 30 -2 17 0 30 6 30 6 0 9 9 7 20 -2 11 1 20 6 20 6 0 7 4 4 10 -7 11
37 220 45 215 3 -2 6 11 6 28 1 28 10 82 14 82 1 0 3 9 4 20 2 16 13 73 21
105 0 3 9 47 19 98 17 82 20 91 35 80 14 -12 14 -11 2 5 -9 11 -11 28 -6 50 3
17 9 46 12 62 8 43 11 60 13 63 5 5 8 23 9 53 0 16 5 28 9 25 5 -3 8 5 7 17
-1 12 2 38 7 57 5 19 11 46 13 60 4 27 16 89 21 105 6 22 15 61 20 85 2 14 7
36 11 50 9 34 10 41 16 75 3 17 9 44 13 60 4 17 6 38 6 48 0 9 3 15 7 13 4 -3
7 8 6 25 -1 16 2 32 7 35 4 3 6 10 3 15 -4 5 -3 15 2 21 4 7 8 24 10 38 2 24
9 59 13 70 1 3 2 9 1 14 -1 5 6 18 16 29 10 11 12 17 6 13 -16 -9 -16 -3 3 64
8 30 17 69 19 85 8 51 26 139 32 155 8 20 10 29 11 68 1 18 5 31 10 29 4 -3 8
16 9 41 1 25 6 48 10 51 4 3 9 24 10 45 2 22 6 42 10 45 5 3 9 24 11 45 1 22
7 45 12 51 5 7 7 15 4 18 -12 11 6 58 19 50 9 -5 9 -3 0 9 -7 8 -11 17 -8 20
2 2 7 22 10 44 3 21 8 46 11 54 3 8 8 25 10 38 2 12 6 32 8 45 2 12 10 45 16
72 6 28 14 61 16 75 3 14 7 32 10 40 3 8 8 33 11 55 2 21 7 44 11 49 3 6 6 22
7 36 1 14 4 34 8 45 3 11 9 36 12 55 3 19 8 42 10 50 2 8 7 31 10 50 3 19 8
43 11 53 5 16 -49 17 -1030 17 l-1035 0 -10 -52z m1469 -6518 c0 -5 -4 -10 -8
-10 -5 0 -8 -10 -7 -22 2 -19 -7 -68 -23 -130 -1 -5 -2 -17 -2 -29 0 -13 -4
-18 -12 -13 -10 6 -10 5 -1 -8 7 -8 11 -17 8 -20 -3 -2 -9 -25 -14 -49 -16
-75 -39 -166 -48 -189 -3 -8 -8 -24 -10 -35 -6 -31 -45 -139 -55 -149 -4 -6
-8 -17 -8 -25 0 -8 -21 -52 -47 -98 -56 -100 -159 -210 -228 -243 -99 -48
-212 -21 -303 73 -39 40 -44 50 -44 93 -2 90 2 125 11 119 5 -3 13 0 17 6 4 7
3 9 -4 5 -6 -3 -13 -2 -16 3 -4 5 -2 12 3 16 6 3 8 12 4 20 -3 8 -1 15 4 15 5
0 9 8 9 18 1 29 8 46 24 60 13 12 13 13 0 6 -12 -6 -13 -5 -3 7 6 8 12 19 13
24 1 6 6 9 12 7 5 -1 7 2 4 7 -7 11 14 61 26 61 4 0 8 6 8 14 0 8 10 22 22 30
12 9 19 16 14 16 -5 0 -3 7 4 15 7 9 15 13 18 10 3 -3 10 5 17 18 6 12 17 21
23 19 7 -1 11 4 10 10 -2 7 3 12 10 10 6 -1 12 5 12 14 0 9 6 14 13 11 6 -2
11 -10 9 -16 -1 -7 2 -10 8 -6 8 5 8 11 0 20 -9 11 1 23 44 55 32 25 60 39 67
34 8 -5 9 -3 4 6 -6 10 -4 12 8 7 10 -4 14 -2 11 6 -4 12 95 77 117 77 5 0 9
5 9 11 0 5 5 7 10 4 6 -3 10 -2 10 3 0 9 64 37 76 33 4 -2 11 4 16 13 5 9 13
14 19 11 5 -4 9 -1 9 6 0 6 8 9 20 6 11 -3 18 -1 15 4 -3 4 8 15 25 24 16 8
30 12 30 8 0 -4 5 -2 12 5 15 15 28 16 28 2z"/>
<path d="M4096 2753 c-6 -14 -5 -15 5 -6 7 7 10 15 7 18 -3 3 -9 -2 -12 -12z"/>
<path d="M4116 2718 c3 -5 10 -6 15 -3 13 9 11 12 -6 12 -8 0 -12 -4 -9 -9z"/>
<path d="M4080 2700 c-9 -6 -10 -10 -3 -10 6 0 15 5 18 10 8 12 4 12 -15 0z"/>
<path d="M4114 2680 c0 -13 4 -16 10 -10 7 7 7 13 0 20 -6 6 -10 3 -10 -10z"/>
<path d="M3957 2648 c19 -21 31 -25 14 -5 -6 8 -9 16 -6 19 3 2 -2 5 -10 5
-13 0 -13 -3 2 -19z"/>
<path d="M3915 2650 c-4 -6 -10 -8 -15 -5 -5 3 -11 1 -14 -4 -8 -13 22 -7 36
7 7 7 9 12 6 12 -4 0 -10 -5 -13 -10z"/>
<path d="M3836 2622 c-3 -5 1 -9 9 -9 8 0 12 4 9 9 -3 4 -7 8 -9 8 -2 0 -6 -4
-9 -8z"/>
<path d="M3990 2625 c0 -7 30 -13 34 -7 3 4 -4 9 -15 9 -10 1 -19 0 -19 -2z"/>
<path d="M3894 2542 c4 -3 14 -7 22 -8 9 -1 13 0 10 4 -4 3 -14 7 -22 8 -9 1
-13 0 -10 -4z"/>
<path d="M3696 2518 c3 -5 10 -6 15 -3 13 9 11 12 -6 12 -8 0 -12 -4 -9 -9z"/>
<path d="M3829 2503 c-13 -16 -12 -17 4 -4 16 13 21 21 13 21 -2 0 -10 -8 -17
-17z"/>
<path d="M3693 2485 c0 -8 4 -12 9 -9 5 3 6 10 3 15 -9 13 -12 11 -12 -6z"/>
<path d="M3753 2475 c0 -8 4 -12 9 -9 5 3 6 10 3 15 -9 13 -12 11 -12 -6z"/>
<path d="M3693 2415 c0 -8 4 -12 9 -9 5 3 6 10 3 15 -9 13 -12 11 -12 -6z"/>
<path d="M3635 2401 c-3 -5 -2 -12 3 -15 5 -3 9 1 9 9 0 17 -3 19 -12 6z"/>
<path d="M3616 2362 c-3 -5 1 -9 9 -9 8 0 12 4 9 9 -3 4 -7 8 -9 8 -2 0 -6 -4
-9 -8z"/>
<path d="M7556 8847 c3 -10 9 -15 12 -12 3 3 0 11 -7 18 -10 9 -11 8 -5 -6z"/>
<path d="M7510 8400 c0 -5 5 -10 11 -10 5 0 7 5 4 10 -3 6 -8 10 -11 10 -2 0
-4 -4 -4 -10z"/>
<path d="M4070 5879 c0 -5 5 -7 10 -4 6 3 10 8 10 11 0 2 -4 4 -10 4 -5 0 -10
-5 -10 -11z"/>
<path d="M6787 5159 c7 -7 15 -10 18 -7 3 3 -2 9 -12 12 -14 6 -15 5 -6 -5z"/>
<path d="M1796 4118 c3 -5 10 -6 15 -3 13 9 11 12 -6 12 -8 0 -12 -4 -9 -9z"/>
<path d="M1874 3948 l-19 -23 23 19 c21 18 27 26 19 26 -2 0 -12 -10 -23 -22z"/>
<path d="M6513 3885 c0 -8 4 -12 9 -9 5 3 6 10 3 15 -9 13 -12 11 -12 -6z"/>
<path d="M1990 3739 c0 -5 5 -7 10 -4 6 3 10 8 10 11 0 2 -4 4 -10 4 -5 0 -10
-5 -10 -11z"/>
<path d="M2036 3662 c-3 -4 4 -9 15 -9 23 -2 25 3 4 10 -8 4 -16 3 -19 -1z"/>
<path d="M2075 3560 c3 -5 8 -10 11 -10 2 0 4 5 4 10 0 6 -5 10 -11 10 -5 0
-7 -4 -4 -10z"/>
<path d="M2170 3459 c0 -5 5 -7 10 -4 6 3 10 8 10 11 0 2 -4 4 -10 4 -5 0 -10
-5 -10 -11z"/>
<path d="M2235 3440 c-3 -5 -1 -10 4 -10 6 0 11 5 11 10 0 6 -2 10 -4 10 -3 0
-8 -4 -11 -10z"/>
<path d="M2270 3376 c0 -2 8 -10 18 -17 15 -13 16 -12 3 4 -13 16 -21 21 -21
13z"/>
<path d="M2340 3300 c8 -5 20 -10 25 -10 6 0 3 5 -5 10 -8 5 -19 10 -25 10 -5
0 -3 -5 5 -10z"/>
<path d="M2529 3243 c-13 -16 -12 -17 4 -4 16 13 21 21 13 21 -2 0 -10 -8 -17
-17z"/>
<path d="M2573 3235 c0 -8 4 -12 9 -9 5 3 6 10 3 15 -9 13 -12 11 -12 -6z"/>
<path d="M2453 3225 c0 -8 4 -12 9 -9 5 3 6 10 3 15 -9 13 -12 11 -12 -6z"/>
<path d="M2627 3219 c7 -7 15 -10 18 -7 3 3 -2 9 -12 12 -14 6 -15 5 -6 -5z"/>
<path d="M2574 3196 c1 -8 5 -18 8 -22 4 -3 5 1 4 10 -1 8 -5 18 -8 22 -4 3
-5 -1 -4 -10z"/>
<path d="M2640 3175 c-11 -13 -11 -18 0 -28 10 -9 11 -9 6 1 -4 7 -2 19 4 27
7 8 10 15 7 15 -2 0 -10 -7 -17 -15z"/>
<path d="M2675 3181 c-3 -5 -2 -12 3 -15 5 -3 9 1 9 9 0 17 -3 19 -12 6z"/>
<path d="M2754 3155 c3 -23 12 -26 13 -5 1 11 -2 20 -7 20 -4 0 -7 -7 -6 -15z"/>
<path d="M2570 3145 c0 -7 30 -13 34 -7 3 4 -4 9 -15 9 -10 1 -19 0 -19 -2z"/>
<path d="M2894 3129 c-3 -6 -2 -15 3 -20 5 -5 9 -1 9 11 0 23 -2 24 -12 9z"/>
<path d="M2664 3122 c4 -3 14 -7 22 -8 9 -1 13 0 10 4 -4 3 -14 7 -22 8 -9 1
-13 0 -10 -4z"/>
<path d="M2950 3121 c0 -6 4 -13 10 -16 6 -3 7 1 4 9 -7 18 -14 21 -14 7z"/>
<path d="M2994 3108 c-19 -23 -19 -23 2 -5 11 9 24 14 29 10 4 -5 5 -2 1 5 -9
16 -10 16 -32 -10z"/>
<path d="M6330 3106 c0 -2 7 -7 16 -10 8 -3 12 -2 9 4 -6 10 -25 14 -25 6z"/>
<path d="M2630 3056 c0 -2 8 -10 18 -17 15 -13 16 -12 3 4 -13 16 -21 21 -21
13z"/>
<path d="M2296 1673 c-6 -14 -5 -15 5 -6 7 7 10 15 7 18 -3 3 -9 -2 -12 -12z"/>
<path d="M5876 1433 c-6 -14 -5 -15 5 -6 7 7 10 15 7 18 -3 3 -9 -2 -12 -12z"/>
<path d="M5816 1298 c3 -5 10 -6 15 -3 13 9 11 12 -6 12 -8 0 -12 -4 -9 -9z"/>
<path d="M5773 1271 c0 -11 5 -18 9 -15 4 3 5 11 1 19 -7 21 -12 19 -10 -4z"/>
<path d="M2456 1102 c-3 -5 1 -9 9 -9 8 0 12 4 9 9 -3 4 -7 8 -9 8 -2 0 -6 -4
-9 -8z"/>
<path d="M2495 1020 c-3 -5 -1 -10 4 -10 6 0 11 5 11 10 0 6 -2 10 -4 10 -3 0
-8 -4 -11 -10z"/>
<path d="M5500 926 c0 -2 8 -10 18 -17 15 -13 16 -12 3 4 -13 16 -21 21 -21
13z"/>
<path d="M5430 889 c0 -5 5 -7 10 -4 6 3 10 8 10 11 0 2 -4 4 -10 4 -5 0 -10
-5 -10 -11z"/>
<path d="M2596 882 c-3 -5 1 -9 9 -9 8 0 12 4 9 9 -3 4 -7 8 -9 8 -2 0 -6 -4
-9 -8z"/>
<path d="M5476 873 c-6 -14 -5 -15 5 -6 7 7 10 15 7 18 -3 3 -9 -2 -12 -12z"/>
<path d="M5345 780 c-3 -6 1 -7 9 -4 18 7 21 14 7 14 -6 0 -13 -4 -16 -10z"/>
<path d="M5219 713 c-13 -16 -12 -17 4 -4 16 13 21 21 13 21 -2 0 -10 -8 -17
-17z"/>
<path d="M5309 683 c-13 -16 -12 -17 4 -4 16 13 21 21 13 21 -2 0 -10 -8 -17
-17z"/>
<path d="M2805 679 c-3 -4 2 -6 10 -5 21 3 28 13 10 13 -9 0 -18 -4 -20 -8z"/>
<path d="M5201 676 c-9 -11 -9 -16 1 -22 7 -4 10 -4 6 1 -4 4 -3 14 3 22 6 7
9 13 6 13 -2 0 -10 -6 -16 -14z"/>
<path d="M5235 681 c-3 -5 -2 -12 3 -15 5 -3 9 1 9 9 0 17 -3 19 -12 6z"/>
<path d="M5265 680 c-3 -6 1 -7 9 -4 18 7 21 14 7 14 -6 0 -13 -4 -16 -10z"/>
<path d="M2775 660 c3 -5 8 -10 11 -10 2 0 4 5 4 10 0 6 -5 10 -11 10 -5 0 -7
-4 -4 -10z"/>
<path d="M5156 661 c-3 -5 1 -14 8 -20 10 -9 16 -9 21 -1 4 6 1 9 -7 8 -7 -2
-12 3 -10 10 2 14 -4 16 -12 3z"/>
<path d="M5099 633 c-13 -16 -12 -17 3 -5 9 8 23 10 29 6 8 -4 9 -3 5 4 -10
17 -21 15 -37 -5z"/>
<path d="M5230 641 c0 -6 4 -13 10 -16 6 -3 7 1 4 9 -7 18 -14 21 -14 7z"/>
<path d="M5276 638 c3 -5 10 -6 15 -3 13 9 11 12 -6 12 -8 0 -12 -4 -9 -9z"/>
<path d="M5073 595 c0 -8 4 -12 9 -9 5 3 6 10 3 15 -9 13 -12 11 -12 -6z"/>
<path d="M2850 579 c0 -5 5 -7 10 -4 6 3 10 8 10 11 0 2 -4 4 -10 4 -5 0 -10
-5 -10 -11z"/>
<path d="M5130 579 c0 -5 5 -7 10 -4 6 3 10 8 10 11 0 2 -4 4 -10 4 -5 0 -10
-5 -10 -11z"/>
<path d="M5110 560 c0 -5 5 -10 11 -10 5 0 7 5 4 10 -3 6 -8 10 -11 10 -2 0
-4 -4 -4 -10z"/>
<path d="M2995 551 c-3 -5 -2 -12 3 -15 5 -3 9 1 9 9 0 17 -3 19 -12 6z"/>
<path d="M3050 521 c0 -6 4 -12 8 -15 5 -3 9 1 9 9 0 8 -4 15 -9 15 -4 0 -8
-4 -8 -9z"/>
<path d="M4879 518 c-5 -18 -6 -38 -1 -34 7 8 12 36 6 36 -2 0 -4 -1 -5 -2z"/>
<path d="M2935 500 c-3 -5 -1 -10 4 -10 6 0 11 5 11 10 0 6 -2 10 -4 10 -3 0
-8 -4 -11 -10z"/>
<path d="M4840 500 c-9 -6 -10 -10 -3 -10 6 0 15 5 18 10 8 12 4 12 -15 0z"/>
<path d="M4775 481 c-3 -5 -2 -12 3 -15 5 -3 9 1 9 9 0 17 -3 19 -12 6z"/>
<path d="M4990 486 c0 -2 7 -7 16 -10 8 -3 12 -2 9 4 -6 10 -25 14 -25 6z"/>
<path d="M3010 460 c0 -5 5 -10 11 -10 5 0 7 5 4 10 -3 6 -8 10 -11 10 -2 0
-4 -4 -4 -10z"/>
<path d="M4766 442 c-3 -5 1 -9 9 -9 8 0 12 4 9 9 -3 4 -7 8 -9 8 -2 0 -6 -4
-9 -8z"/>
<path d="M3055 420 c-3 -5 -1 -10 4 -10 6 0 11 5 11 10 0 6 -2 10 -4 10 -3 0
-8 -4 -11 -10z"/>
<path d="M4675 421 c-3 -5 -2 -12 3 -15 5 -3 9 1 9 9 0 17 -3 19 -12 6z"/>
<path d="M4747 419 c7 -7 15 -10 18 -7 3 3 -2 9 -12 12 -14 6 -15 5 -6 -5z"/>
<path d="M4623 402 c10 -10 14 -22 10 -27 -5 -4 -2 -5 5 -1 11 6 10 12 -4 27
-9 10 -19 19 -22 19 -3 0 2 -8 11 -18z"/>
<path d="M3141 396 c-9 -11 -9 -16 1 -22 7 -4 10 -4 6 1 -4 4 -3 14 3 22 6 7
9 13 6 13 -2 0 -10 -6 -16 -14z"/>
<path d="M3290 401 c0 -6 4 -13 10 -16 6 -3 7 1 4 9 -7 18 -14 21 -14 7z"/>
<path d="M4599 398 c-5 -18 -6 -38 -1 -34 7 8 12 36 6 36 -2 0 -4 -1 -5 -2z"/>
<path d="M4665 380 c-3 -6 1 -7 9 -4 18 7 21 14 7 14 -6 0 -13 -4 -16 -10z"/>
<path d="M3300 365 c0 -2 6 -8 13 -14 10 -8 14 -7 14 2 0 8 -6 14 -14 14 -7 0
-13 -1 -13 -2z"/>
<path d="M3376 359 c4 -8 30 -6 38 2 3 3 -5 5 -19 5 -13 0 -22 -3 -19 -7z"/>
<path d="M3214 342 c4 -3 14 -7 22 -8 9 -1 13 0 10 4 -4 3 -14 7 -22 8 -9 1
-13 0 -10 -4z"/>
<path d="M3507 339 c7 -7 15 -10 18 -7 3 3 -2 9 -12 12 -14 6 -15 5 -6 -5z"/>
<path d="M4396 338 c3 -5 10 -6 15 -3 13 9 11 12 -6 12 -8 0 -12 -4 -9 -9z"/>
<path d="M4513 335 c0 -8 4 -12 9 -9 5 3 6 10 3 15 -9 13 -12 11 -12 -6z"/>
<path d="M4546 338 c3 -5 10 -6 15 -3 13 9 11 12 -6 12 -8 0 -12 -4 -9 -9z"/>
<path d="M4610 339 c0 -5 5 -7 10 -4 6 3 10 8 10 11 0 2 -4 4 -10 4 -5 0 -10
-5 -10 -11z"/>
<path d="M4650 340 c0 -5 5 -10 11 -10 5 0 7 5 4 10 -3 6 -8 10 -11 10 -2 0
-4 -4 -4 -10z"/>
<path d="M4253 325 c0 -8 4 -12 9 -9 5 3 6 10 3 15 -9 13 -12 11 -12 -6z"/>
<path d="M4299 313 c-13 -16 -12 -17 4 -4 9 7 17 15 17 17 0 8 -8 3 -21 -13z"/>
<path d="M4535 311 c-3 -5 -2 -12 3 -15 5 -3 9 1 9 9 0 17 -3 19 -12 6z"/>
<path d="M3510 298 c0 -4 4 -8 9 -8 6 0 12 4 15 8 3 5 -1 9 -9 9 -8 0 -15 -4
-15 -9z"/>
<path d="M3589 298 c7 -9 9 -23 5 -30 -6 -10 -4 -11 7 0 11 10 10 15 -6 30
-17 15 -18 15 -6 0z"/>
<path d="M4080 300 c-9 -6 -10 -10 -3 -10 6 0 15 5 18 10 8 12 4 12 -15 0z"/>
<path d="M3774 289 c-3 -6 -2 -15 3 -20 5 -5 9 -1 9 11 0 23 -2 24 -12 9z"/>
<path d="M3894 280 c0 -13 4 -16 10 -10 7 7 7 13 0 20 -6 6 -10 3 -10 -10z"/>
<path d="M4255 289 c-4 -6 -5 -12 -2 -15 2 -3 7 2 10 11 7 17 1 20 -8 4z"/>
<path d="M3556 273 c-6 -14 -5 -15 5 -6 7 7 10 15 7 18 -3 3 -9 -2 -12 -12z"/>
<path d="M3712 285 c3 -3 16 -8 28 -10 12 -2 20 -1 16 2 -4 4 -16 8 -28 10
-12 2 -19 1 -16 -2z"/>
<path d="M4110 280 c0 -5 5 -10 11 -10 5 0 7 5 4 10 -3 6 -8 10 -11 10 -2 0
-4 -4 -4 -10z"/>
<path d="M4033 249 c-2 -23 3 -25 10 -4 4 8 3 16 -1 19 -4 3 -9 -4 -9 -15z"/>
<path d="M4067 259 c7 -7 15 -10 18 -7 3 3 -2 9 -12 12 -14 6 -15 5 -6 -5z"/>
<path d="M4330 259 c0 -5 5 -7 10 -4 6 3 10 8 10 11 0 2 -4 4 -10 4 -5 0 -10
-5 -10 -11z"/>
<path d="M4375 260 c3 -5 8 -10 11 -10 2 0 4 5 4 10 0 6 -5 10 -11 10 -5 0 -7
-4 -4 -10z"/>
<path d="M3659 258 c-5 -9 -5 -48 -1 -43 6 6 11 45 5 45 -2 0 -4 -1 -4 -2z"/>
<path d="M3535 240 c-3 -5 -1 -10 4 -10 6 0 11 5 11 10 0 6 -2 10 -4 10 -3 0
-8 -4 -11 -10z"/>
<path d="M3695 220 c3 -5 8 -10 11 -10 2 0 4 5 4 10 0 6 -5 10 -11 10 -5 0 -7
-4 -4 -10z"/>
<path d="M3730 219 c0 -5 5 -7 10 -4 6 3 10 8 10 11 0 2 -4 4 -10 4 -5 0 -10
-5 -10 -11z"/>
<path d="M4175 220 c-3 -5 -1 -10 4 -10 6 0 11 5 11 10 0 6 -2 10 -4 10 -3 0
-8 -4 -11 -10z"/>
<path d="M4256 222 c-2 -4 -1 -14 4 -22 7 -11 9 -9 7 8 -1 24 -3 26 -11 14z"/>
<path d="M4079 218 c-5 -18 -6 -38 -1 -34 7 8 12 36 6 36 -2 0 -4 -1 -5 -2z"/>
<path d="M4030 199 c0 -5 5 -7 10 -4 6 3 10 8 10 11 0 2 -4 4 -10 4 -5 0 -10
-5 -10 -11z"/>
<path d="M3830 146 c0 -2 7 -7 16 -10 8 -3 12 -2 9 4 -6 10 -25 14 -25 6z"/>
</g>
</svg>
